<svg width="32" height="10" viewBox="0 0 32 10" fill="none" xmlns="http://www.w3.org/2000/svg">
<path fill-rule="evenodd" clip-rule="evenodd" d="M12.649 6.9395C13.2572 6.98306 13.9659 6.51059 14.2155 6.24085C15.0834 5.30176 15.1043 3.94382 14.2306 2.96034C13.9056 2.59426 13.1416 2.18964 12.6582 2.24661H10.9082V6.93364L12.6532 6.9395H12.649ZM11.895 5.92419V3.25606C12.169 3.23809 12.4438 3.23809 12.7177 3.25606C12.9332 3.28105 13.1388 3.36063 13.315 3.48727C14.3202 4.1742 13.9014 5.81193 12.7009 5.92168C12.4326 5.94054 12.1634 5.94138 11.895 5.92419Z" fill="#008CEB"/>
<path fill-rule="evenodd" clip-rule="evenodd" d="M28.0123 6.94802H29.01V5.93773H30.9896L30.9954 6.943H31.9931V5.27761C31.9931 4.77498 32.035 4.14837 31.9094 3.69349C31.7952 3.27706 31.548 2.90939 31.2054 2.64656C30.8629 2.38374 30.4437 2.2402 30.0119 2.23782C29.5801 2.23545 29.1594 2.37438 28.814 2.63342C28.4685 2.89246 28.2173 3.25739 28.0986 3.67255C27.9646 4.12156 28.0098 4.76577 28.0098 5.26421C28.0098 5.82716 28.0039 6.39345 28.0098 6.9564L28.0123 6.94802ZM29.0109 4.92158C29.005 4.50272 28.9606 4.05454 29.1575 3.73202C29.2439 3.58354 29.3681 3.46059 29.5174 3.37568C29.6668 3.29078 29.836 3.24695 30.0077 3.24866C30.1787 3.24992 30.3463 3.29551 30.4943 3.38097C30.6423 3.46643 30.7656 3.58883 30.8522 3.73621C31.0465 4.0713 31.0004 4.49016 30.9954 4.92242L29.0109 4.92158Z" fill="#008CEB"/>
<path fill-rule="evenodd" clip-rule="evenodd" d="M16.6029 6.94721H17.5973C17.5973 6.73611 17.5705 6.09023 17.6065 5.93693H19.5785L19.5852 6.94638H20.5812C20.5762 6.38678 20.5812 5.82802 20.5812 5.27094C20.5812 4.79344 20.6256 4.10986 20.4974 3.68598C20.3826 3.27009 20.135 2.90311 19.7924 2.6409C19.4497 2.37869 19.0308 2.23561 18.5994 2.23342C18.1679 2.23124 17.7476 2.37008 17.4023 2.62882C17.057 2.88755 16.8057 3.252 16.6867 3.66671C16.5535 4.10232 16.5987 4.76831 16.5987 5.25335C16.5987 5.81294 16.5861 6.38678 16.5987 6.9447L16.6029 6.94721ZM17.5981 4.92161C17.5914 4.50275 17.5487 4.04871 17.7455 3.73289C17.8319 3.58479 17.9556 3.46191 18.1043 3.37652C18.253 3.29112 18.4214 3.24618 18.5929 3.24618C18.7644 3.24618 18.9328 3.29112 19.0815 3.37652C19.2302 3.46191 19.3539 3.58479 19.4402 3.73289C19.6354 4.06798 19.5885 4.49354 19.5852 4.91994L17.5981 4.92161Z" fill="#008CEB"/>
<path fill-rule="evenodd" clip-rule="evenodd" d="M22.3311 4.07713L22.3169 4.77495C22.3169 5.36135 22.2884 6.45625 22.3169 6.93291H23.292C23.3146 6.59782 23.2568 4.21787 23.3179 4.14164C23.3179 3.67921 23.8013 3.24863 24.2888 3.24695C24.5423 3.24543 24.7863 3.3428 24.9691 3.51837C25.0931 3.63147 25.2832 3.88948 25.2799 4.15001C25.3251 4.17598 25.2891 6.66317 25.3033 6.93878H26.2793L26.2717 4.09472C26.296 3.87189 26.162 3.52759 26.0757 3.35334C25.9157 3.02134 25.6659 2.74077 25.3547 2.54341C25.0434 2.34605 24.6831 2.23978 24.3146 2.23664C23.946 2.23351 23.584 2.33362 23.2694 2.52565C22.9548 2.71768 22.7003 2.99395 22.5347 3.32318C22.4509 3.49492 22.3102 3.84843 22.3311 4.07713Z" fill="#008CEB"/>
<path d="M4.57478 9.14956C7.10136 9.14956 9.14956 7.10136 9.14956 4.57478C9.14956 2.0482 7.10136 0 4.57478 0C2.0482 0 0 2.0482 0 4.57478C0 7.10136 2.0482 9.14956 4.57478 9.14956Z" fill="#008CEB"/>
<path d="M7.24055 4.59398V5.88155C7.24055 5.96532 7.20453 5.98291 7.13416 5.94186C7.04003 5.88538 6.94206 5.83555 6.84096 5.79275C6.53564 5.67112 6.20493 5.62708 5.87842 5.66458C5.52205 5.71081 5.17231 5.79853 4.8363 5.92595C4.50122 6.03904 4.17283 6.16135 3.83104 6.25601C3.54795 6.34008 3.25334 6.37881 2.95814 6.37078C2.63099 6.35808 2.31303 6.25894 2.03665 6.08344C2.00192 6.06252 1.97343 6.03269 1.95413 5.99704C1.93483 5.96139 1.92543 5.92122 1.92691 5.88071C1.92691 5.03741 1.92691 4.19411 1.92691 3.3508C1.92691 3.30975 1.92691 3.26117 1.96377 3.24022C2.00063 3.21928 2.03832 3.25363 2.07016 3.27457C2.37029 3.47751 2.72575 3.58283 3.08799 3.57615C3.34699 3.56552 3.60315 3.51785 3.84863 3.43457C4.19712 3.32651 4.53389 3.18326 4.87651 3.06179C5.14322 2.95929 5.41669 2.87532 5.69496 2.81048C5.93379 2.75455 6.1816 2.74867 6.42281 2.79322C6.66401 2.83777 6.89338 2.93178 7.09647 3.06933C7.14303 3.09786 7.18115 3.13827 7.20692 3.18642C7.23268 3.23456 7.24516 3.2887 7.24307 3.34326C7.24307 3.76212 7.24307 4.18098 7.24307 4.59984L7.24055 4.59398Z" fill="#FEFEFE"/>
</svg>
