<svg width="85" height="16" viewBox="0 0 85 16" fill="none" xmlns="http://www.w3.org/2000/svg">
<path fill-rule="evenodd" clip-rule="evenodd" d="M15.6781 6.42504C15.5822 4.82692 14.1766 3.60013 12.5238 3.67201H4.30754C4.00822 3.67201 3.76557 3.43723 3.76557 3.14762C3.76557 2.85801 4.00822 2.62324 4.30754 2.62324H12.6321C12.5871 1.53519 11.8202 0.60017 10.7352 0.310691C8.30975 -0.103564 5.828 -0.103564 3.40249 0.310691C2.02371 0.639309 0.992312 1.74951 0.801034 3.11092C0.416257 5.58081 0.416257 8.09256 0.801034 10.5625C1.09395 12.0001 2.27313 13.1139 3.76561 13.3627C6.77644 13.7245 9.82196 13.7245 12.8328 13.3627C14.1717 13.0975 15.1849 12.0327 15.3476 10.7198C15.6172 9.30387 15.728 7.86395 15.6781 6.42504ZM12.9791 8.18686V8.65356C12.9791 8.94317 12.7364 9.17795 12.4371 9.17795C12.1378 9.17795 11.8951 8.94317 11.8951 8.65356V8.18686C11.722 8.03996 11.6231 7.82763 11.6242 7.60479C11.6242 7.17037 11.9881 6.81821 12.4371 6.81821C12.8861 6.81821 13.2501 7.17037 13.2501 7.60479C13.2511 7.82762 13.1523 8.03996 12.9791 8.18685V8.18686Z" fill="#00AED6"/>
<path fill-rule="evenodd" clip-rule="evenodd" d="M46.1612 5.71128C46.1612 2.5158 43.5922 0.0122772 40.0635 0.0122772C37.9343 -0.127037 35.9044 0.927692 34.7975 2.74843C33.6905 4.56916 33.6905 6.8534 34.7975 8.67413C35.9044 10.4949 37.9343 11.5496 40.0635 11.4103C43.5922 11.4103 46.1612 8.90676 46.1612 5.71128ZM23.0159 11.6344C23.8403 12.8084 25.2113 13.4771 26.6458 13.4049C28.3374 13.4049 29.5817 12.3263 29.5817 10.8604V10.0872H29.5406C28.6137 10.9913 27.3483 11.4641 26.0545 11.3898C24.0105 11.4484 22.0943 10.4 21.0443 8.64854C19.9944 6.89712 19.9745 4.71609 20.9924 2.94589C22.0103 1.17569 23.907 0.0926522 25.9518 0.114101C27.2702 0.0296667 28.5661 0.485254 29.5406 1.37573H29.5817V0.317679H32.478V10.8201C32.478 13.8728 30.0512 15.9897 26.6458 15.9897C24.4152 16.1111 22.2616 15.1575 20.8547 13.4254L23.0159 11.6344ZM29.4599 5.10064C29.4599 3.87925 28.0734 2.75965 26.524 2.75965C24.5652 2.75965 23.2609 3.94079 23.2609 5.71133C23.2029 6.55021 23.5187 7.3719 24.1241 7.95668C24.7295 8.54145 25.5626 8.82967 26.4007 8.74427C28.0939 8.74427 29.4599 7.68543 29.4599 6.36226V5.10064ZM40.0635 2.65783C38.3769 2.66931 37.0179 4.04123 37.0255 5.72465C37.0331 7.40807 38.4044 8.76771 40.091 8.76404C41.7776 8.76034 43.143 7.39473 43.1432 5.71129C43.1814 4.88674 42.8685 4.0845 42.2818 3.50279C41.6951 2.92108 40.8893 2.61415 40.0635 2.65783ZM50.6891 0.317659H47.7927V15.6844H50.8108V10.2702H50.8519C51.8112 11.035 53.0094 11.4386 54.2368 11.4103C57.3459 11.3431 59.8296 8.80527 59.824 5.70126C59.8184 2.59724 57.3255 0.0683092 54.2162 0.0123131C52.932 -0.0491109 51.6765 0.405236 50.7302 1.27393H50.6891V0.317659ZM53.7481 2.6783C52.1561 2.6783 50.8107 3.79792 50.8107 5.0193V6.38271C50.8107 7.68536 52.1166 8.76393 53.7671 8.76393C55.4507 8.75871 56.8114 7.39215 56.8061 5.71166C56.8009 4.03116 55.4318 2.67309 53.7481 2.6783ZM68.0828 3.57371C68.0828 4.12364 67.4915 4.40848 65.5137 4.67279C62.1083 5.14147 60.7629 6.17901 60.7629 8.19414C60.7629 10.1075 62.4134 11.4101 64.7991 11.4101C66.1811 11.5077 67.5299 10.9587 68.4495 9.92443H68.4907V11.1048H71.2037V4.24515C71.2037 1.62013 69.2448 0.012131 66.0845 0.012131C63.2909 0.012131 61.0269 1.5791 60.6191 3.77727L63.4743 4.36745C63.7719 3.14895 64.9146 2.32856 66.1667 2.43438C67.3287 2.43438 68.0828 2.86123 68.0828 3.57371ZM68.328 5.81311H68.2869C68.0213 6.19973 67.4506 6.4238 65.9835 6.68811C64.208 7.01397 63.5772 7.35956 63.5772 7.99077C63.5772 8.64249 64.1069 8.92732 65.2483 8.92732C66.9826 8.92732 68.328 8.13357 68.328 7.09525V5.81311ZM71.6716 0.317477L76.6674 10.5146L74.0984 15.6842H77.4231L84.9058 0.317477H81.5621L78.3195 7.35937H78.2784L74.9963 0.317477H71.6716Z" fill="black"/>
</svg>
