<svg width="17" height="10" viewBox="0 0 17 10" fill="none" xmlns="http://www.w3.org/2000/svg">
<path fill-rule="evenodd" clip-rule="evenodd" d="M15.9661 7.88797V7.45747L15.8266 7.82797H15.6721L15.5326 7.45747V7.88797H15.3871V7.26697H15.5956L15.7501 7.66447L15.9031 7.26697H16.1131V7.88797H15.9661ZM14.9236 7.88797V7.40047H14.7256V7.26697H15.2656V7.40047H15.0676V7.88797H14.9236Z" fill="#F59E00"/>
<path fill-rule="evenodd" clip-rule="evenodd" d="M6.08284 5.00041C6.08284 3.57014 6.75095 2.29635 7.79162 1.47176C7.02419 0.864054 6.05527 0.5 5 0.5C2.51446 0.5 0.5 2.51487 0.5 5.00041C0.5 7.48595 2.51446 9.50122 5 9.50122C6.05527 9.50122 7.02419 9.13676 7.79162 8.52905C6.75095 7.70487 6.08284 6.43108 6.08284 5.00041Z" fill="#E20D17"/>
<path fill-rule="evenodd" clip-rule="evenodd" d="M6.08301 5.00045C6.08301 6.43113 6.75112 7.70491 7.79179 8.5291C8.83247 7.70491 9.50098 6.43113 9.50098 5.00045C9.50098 3.57018 8.83247 2.2964 7.79179 1.4718C6.75112 2.2964 6.08301 3.57018 6.08301 5.00045Z" fill="#EA610A"/>
<path fill-rule="evenodd" clip-rule="evenodd" d="M10.5826 0.500244C9.52777 0.500244 8.55845 0.863893 7.79102 1.4716C8.8321 2.2966 9.5002 3.56997 9.5002 5.00065C9.5002 6.43132 8.8321 7.7047 7.79102 8.5293C8.55845 9.137 9.52777 9.50105 10.5826 9.50105C13.0682 9.50105 15.0834 7.48578 15.0834 5.00065C15.0834 2.51511 13.0682 0.500244 10.5826 0.500244Z" fill="#F59E00"/>
</svg>
