<svg width="30" height="12" viewBox="0 0 30 12" fill="none" xmlns="http://www.w3.org/2000/svg">
<path fill-rule="evenodd" clip-rule="evenodd" d="M9.85107 1.95516H17.5434V6.4598H14.3163L17.5434 9.34277H14.802L11.6372 6.4598V9.34277H9.85107V4.76329H15.491V3.66712H9.85107V1.95516Z" fill="black"/>
<path fill-rule="evenodd" clip-rule="evenodd" d="M3.11014 7.55638V1.95557H1.62321C1.35429 1.95557 1.14863 2.15089 1.14863 2.39139C1.14863 3.71263 1.13281 7.60141 1.13281 8.89275C1.13281 9.13295 1.33848 9.34318 1.59158 9.34318H6.00461V7.55638H3.11014Z" fill="black"/>
<path fill-rule="evenodd" clip-rule="evenodd" d="M7.02979 11.1259H8.82466V7.30469H7.02979V11.1259Z" fill="black"/>
<path fill-rule="evenodd" clip-rule="evenodd" d="M4.20996 1.95516V3.79268H7.13591V6.54058H9.08176V2.40344C9.08176 2.16428 8.87586 1.97045 8.62317 1.95516H4.20996Z" fill="black"/>
<path fill-rule="evenodd" clip-rule="evenodd" d="M4.21045 4.75708V7.25708H4.84564H6.71045V4.75708H4.21045ZM5.9724 6.49761H5.21377H4.94775V5.49683H5.9724V6.49761Z" fill="black"/>
<path fill-rule="evenodd" clip-rule="evenodd" d="M29.392 7.55981V10.2603C29.392 10.4953 29.1703 10.686 28.9174 10.686H26.0049V11.1262H29.392H29.4082C29.6455 11.1262 29.851 10.9355 29.851 10.7007V10.686V7.55981H29.392Z" fill="black"/>
<path fill-rule="evenodd" clip-rule="evenodd" d="M0.582287 3.72353V1.02347C0.582287 0.788479 0.77217 0.612592 1.02543 0.612592H3.93775C3.95358 0.612592 3.95358 0.597494 3.95358 0.597494V0.186613C3.95358 0.186613 3.95358 0.172119 3.93775 0.172119H0.582287C0.313208 0.172119 0.107422 0.363028 0.107422 0.612592V3.72353C0.107422 3.73855 0.123245 3.73855 0.123245 3.73855H0.566464C0.566464 3.73855 0.582287 3.73855 0.582287 3.72353Z" fill="black"/>
<path fill-rule="evenodd" clip-rule="evenodd" d="M28.3124 3.79454V1.95516H20.8765V4.7145V6.56877H25.829V7.48835H20.8765V9.34277H28.3124V4.72939H23.3603V3.79454H28.3124Z" fill="black"/>
<path fill-rule="evenodd" clip-rule="evenodd" d="M18.313 9.34318H20.1079V1.95557H18.313V9.34318Z" fill="black"/>
</svg>
