<svg width="14" height="12" viewBox="0 0 14 12" fill="none" xmlns="http://www.w3.org/2000/svg">
<path fill-rule="evenodd" clip-rule="evenodd" d="M1.90889 2.50235H11.8779C12.5681 2.50235 13.1277 3.0619 13.1277 3.75214V10.7502C13.1277 11.4405 12.5681 12 11.8779 12H1.24978C0.91832 12 0.600433 11.8683 0.366053 11.6339C0.131673 11.3996 1.22889e-07 11.0817 1.22889e-07 10.7502V2.04911C-0.000284993 1.4007 0.495586 0.859863 1.14159 0.804007L10.1948 0.00220437C10.3488 -0.0116343 10.5016 0.0401356 10.6155 0.144789C10.7294 0.249442 10.7938 0.397273 10.793 0.551945V1.45258C10.793 1.59082 10.681 1.70289 10.5427 1.70289H1.60887C1.47095 1.70289 1.35915 1.8147 1.35915 1.95261C1.35915 2.25623 1.60527 2.50235 1.90889 2.50235ZM7.71944 10.4593C8.31198 10.22 8.7259 9.67547 8.79786 9.0405C8.92535 7.996 8.2528 7.33046 6.47726 6.76551C5.61756 6.47193 5.21227 6.08477 5.22163 5.55842C5.25788 4.97008 5.80412 4.54257 6.52872 4.52971C7.09953 4.53585 7.65625 4.70774 8.13116 5.02447C8.19549 5.0619 8.24052 5.0619 8.27736 5.00342C8.2975 4.97111 8.32954 4.92061 8.36343 4.8672C8.41419 4.78721 8.46909 4.70069 8.49434 4.65895C8.51197 4.63375 8.51791 4.60217 8.51063 4.57229C8.50335 4.5424 8.48357 4.51708 8.45632 4.5028C8.28295 4.38888 8.10021 4.28989 7.91009 4.20688C7.46845 4.01954 6.99383 3.92231 6.5141 3.9209C5.45322 3.92382 4.61983 4.59462 4.5479 5.49C4.50189 6.13682 4.82219 6.66005 5.50878 7.05968C5.6544 7.14565 6.44217 7.45737 6.75563 7.55503C7.74166 7.86207 8.25339 8.41064 8.13291 9.05395C8.02355 9.63586 7.41123 10.0119 6.56732 10.023C5.89827 9.99729 5.29648 9.72475 4.82862 9.36158L4.75025 9.30309C4.72885 9.28019 4.698 9.26857 4.66681 9.27166C4.63562 9.27476 4.60766 9.29222 4.59118 9.31888C4.57615 9.3395 4.52314 9.41859 4.46877 9.49971C4.4152 9.57963 4.3603 9.66152 4.33912 9.69142C4.29642 9.75166 4.31923 9.78441 4.36368 9.82184C4.55938 9.98541 4.77052 10.1296 4.99413 10.2523C5.48227 10.5003 6.01889 10.6383 6.56615 10.6564C6.9603 10.6747 7.35374 10.6075 7.71944 10.4593Z" fill="#EE4D2D"/>
</svg>
