<svg width="18" height="6" viewBox="0 0 18 6" fill="none" xmlns="http://www.w3.org/2000/svg">
<path fill-rule="evenodd" clip-rule="evenodd" d="M5.28455 0.103516L3.77628 3.9162L3.16697 0.67455C3.096 0.313309 2.81359 0.103516 2.49869 0.103516H0.0337241L0 0.265722C0.505241 0.376826 1.08103 0.553516 1.42883 0.741585C1.64234 0.858274 1.70276 0.95924 1.77248 1.23462L2.92779 5.70503H4.46028L6.80772 0.103516H5.28455Z" fill="#10357F"/>
<path fill-rule="evenodd" clip-rule="evenodd" d="M7.42834 0.103516L6.23145 5.70503H7.67972L8.87579 0.103516H7.42834Z" fill="#10357F"/>
<path fill-rule="evenodd" clip-rule="evenodd" d="M10.7776 1.65621C10.7821 1.45531 10.9737 1.24179 11.3922 1.18572C11.6008 1.15903 12.1714 1.13855 12.8215 1.43628L13.0758 0.249517C12.7269 0.12269 12.2771 0 11.7198 0C10.2872 0 9.28045 0.762414 9.27072 1.85297C9.26328 2.65862 9.99135 3.10904 10.5396 3.378C11.1042 3.65152 11.2942 3.82676 11.2909 4.07421C11.288 4.44972 10.8407 4.61462 10.4252 4.62104C9.69569 4.63283 9.27279 4.4249 8.93555 4.26848L8.67383 5.496C9.01128 5.65076 9.63672 5.78628 10.2858 5.7931C11.8056 5.7931 12.8022 5.04 12.8074 3.87641C12.8132 2.3969 10.7633 2.31579 10.7776 1.65621Z" fill="#10357F"/>
<path fill-rule="evenodd" clip-rule="evenodd" d="M15.5232 0.103516C15.2448 0.103516 15.0099 0.264481 14.9059 0.514619L12.7324 5.70503H14.2544L14.5568 4.86814H16.4117L16.5855 5.70503H17.929L16.7603 0.103516H15.5232ZM14.9729 3.72071L15.743 1.6172L16.1762 3.72071H14.9729Z" fill="#10357F"/>
</svg>
